<svg xmlns="http://www.w3.org/2000/svg" viewBox="0 0 560 360">
<defs>
  <linearGradient id="g" x1="0" x2="1"><stop offset="0" stop-color="#dfeef6"/><stop offset="1" stop-color="#b9d5e5"/></linearGradient>
</defs>
<rect width="560" height="360" fill="#ffffff"/>
<g transform="translate(48,68)">
  <ellipse cx="130" cy="95" rx="112" ry="58" fill="url(#g)" stroke="#1f5f8b" stroke-width="5"/>
  <ellipse cx="130" cy="95" rx="78" ry="37" fill="#ffffff" stroke="#8fb9d0" stroke-width="4"/>
  <text x="130" y="101" text-anchor="middle" font-family="Arial" font-size="18" fill="#1f5f8b" font-weight="700">GASTRORESISTENTE</text>
  <text x="130" y="185" text-anchor="middle" font-family="Arial" font-size="16" fill="#697586">rivestimento protettivo</text>
</g>
<g transform="translate(340,42)">
  <path d="M70 35 L125 90 L98 117 L43 62 Z" fill="#9aa6b2"/>
  <rect x="92" y="82" width="34" height="118" rx="10" transform="rotate(45 109 141)" fill="#697586"/>
  <path d="M0 206 C25 188 45 214 63 193 C81 173 96 207 119 185" fill="none" stroke="#a63b3b" stroke-width="8" stroke-linecap="round"/>
  <path d="M18 228 l18 -12 l14 20 l20 -17 l17 22 l21 -19" fill="none" stroke="#a63b3b" stroke-width="6"/>
  <text x="70" y="270" text-anchor="middle" font-family="Arial" font-size="22" fill="#a63b3b" font-weight="700">CRUSH</text>
  <text x="70" y="298" text-anchor="middle" font-family="Arial" font-size="15" fill="#697586">non è un gesto neutro</text>
</g>
<path d="M280 165 L330 165" stroke="#9aa6b2" stroke-width="4" marker-end="url(#arrow)"/>
</svg>